<svg width="1920" height="606" viewBox="0 0 1920 606" fill="none" xmlns="http://www.w3.org/2000/svg">
<rect width="1920" height="606" fill="white"/>
<circle cx="132.5" cy="147.5" r="67" stroke="#EFF1CC" stroke-width="5"/>
<circle cx="132.5" cy="147.5" r="55.295" stroke="#EFF1CC" stroke-width="2"/>
<g opacity="0.2">
<circle cx="1636.5" cy="119.5" r="67" stroke="#00AE9A" stroke-width="5"/>
<circle cx="1636.5" cy="119.5" r="55.295" stroke="#00AE9A" stroke-width="2"/>
</g>
<circle opacity="0.2" cx="214.5" cy="464.5" r="47.5" stroke="#00AE9A" stroke-width="2"/>
<circle opacity="0.3" cx="1759.5" cy="489.5" r="47.5" stroke="#CAD51A" stroke-width="2"/>
<rect x="294" y="170" width="19" height="5" fill="#EFF1CC"/>
<rect x="306" y="163" width="19" height="5" transform="rotate(90 306 163)" fill="#EFF1CC"/>
<rect x="1826" y="129" width="19" height="5" fill="#EFF1CC"/>
<rect x="1838" y="122" width="19" height="5" transform="rotate(90 1838 122)" fill="#EFF1CC"/>
<rect x="121" y="140" width="19" height="5" fill="#00AE9A"/>
<rect x="133" y="133" width="19" height="5" transform="rotate(90 133 133)" fill="#00AE9A"/>
<rect x="1734" y="345" width="19" height="5" fill="#00AE9A"/>
<rect x="1746" y="338" width="19" height="5" transform="rotate(90 1746 338)" fill="#00AE9A"/>
</svg>
