<svg width="320" height="1677" viewBox="0 0 320 1677" fill="none" xmlns="http://www.w3.org/2000/svg">
<rect width="320" height="1677" fill="url(#paint0_linear_54_2031)"/>
<circle cx="38.5" cy="1353.5" r="41.5" stroke="#EFF1CC" stroke-width="2"/>
<g opacity="0.2">
<circle cx="277.5" cy="1119.5" r="67" stroke="#00AE9A" stroke-width="5"/>
<circle cx="277.5" cy="1119.5" r="55.295" stroke="#00AE9A" stroke-width="2"/>
</g>
<circle cx="-18.5" cy="540.5" r="54" stroke="#EFF1CC" stroke-width="5"/>
<circle cx="-18.4996" cy="540.5" r="44.765" stroke="#EFF1CC" stroke-width="2"/>
<rect x="245" y="511" width="19" height="5" fill="#EFF1CC"/>
<rect x="257" y="504" width="19" height="5" transform="rotate(90 257 504)" fill="#EFF1CC"/>
<path d="M1.21972e-05 1677L9.79746e-06 1591.28L1.06656e-05 1433C128.1 1433 118.834 1520.66 210.277 1564.21C280.617 1597.71 309.373 1580.97 397.592 1604.82C485.811 1628.66 474.532 1677 474.532 1677L1.21972e-05 1677Z" fill="#EEF0F3"/>
<circle opacity="0.2" cx="93.5" cy="1538.5" r="47.5" stroke="#00AE9A" stroke-width="2"/>
<rect x="43.8389" y="724.303" width="20" height="5" transform="rotate(45 43.8389 724.303)" fill="#00AE9A"/>
<rect x="57.9814" y="727.839" width="20" height="5" transform="rotate(135 57.9814 727.839)" fill="#00AE9A"/>
<rect x="33.8389" y="147.303" width="20" height="5" transform="rotate(45 33.8389 147.303)" fill="#00AE9A"/>
<rect x="47.9814" y="150.839" width="20" height="5" transform="rotate(135 47.9814 150.839)" fill="#00AE9A"/>
<circle opacity="0.2" cx="77" cy="43" r="41" stroke="#00AE9A" stroke-width="2"/>
<circle opacity="0.2" cx="292" cy="797" r="41" stroke="#00AE9A" stroke-width="2"/>
<rect x="45.8389" y="1157.3" width="20" height="5" transform="rotate(45 45.8389 1157.3)" fill="#EFF1CC"/>
<rect x="59.9814" y="1160.84" width="20" height="5" transform="rotate(135 59.9814 1160.84)" fill="#EFF1CC"/>
<rect x="263.839" y="1387.3" width="20" height="5" transform="rotate(45 263.839 1387.3)" fill="#00AE9A"/>
<rect x="277.981" y="1390.84" width="20" height="5" transform="rotate(135 277.981 1390.84)" fill="#00AE9A"/>
<circle cx="235.5" cy="184.5" r="67" stroke="#EFF1CC" stroke-width="5"/>
<circle cx="235.5" cy="184.5" r="55.295" stroke="#EFF1CC" stroke-width="2"/>
<defs>
<linearGradient id="paint0_linear_54_2031" x1="160" y1="0" x2="160" y2="1677" gradientUnits="userSpaceOnUse">
<stop stop-color="#FAFBFC" stop-opacity="0"/>
<stop offset="1" stop-color="#FAFBFC"/>
</linearGradient>
</defs>
</svg>
