<svg width="1757" height="789" viewBox="0 0 1757 789" fill="none" xmlns="http://www.w3.org/2000/svg">
<circle opacity="0.2" cx="108.5" cy="616.5" r="47.5" stroke="#00AE9A" stroke-width="2"/>
<circle opacity="0.5" cx="1629.5" cy="28.5" r="27.5" stroke="#EFF1CC" stroke-width="2"/>
<circle cx="78.5" cy="233.5" r="76" stroke="#EFF1CC" stroke-width="5"/>
<circle cx="78.5" cy="233.5" r="62.585" stroke="#EFF1CC" stroke-width="2"/>
<rect x="1620" y="35" width="19" height="5" fill="#00AE9A"/>
<rect x="1632" y="28" width="19" height="5" transform="rotate(90 1632 28)" fill="#00AE9A"/>
<rect x="1736.84" y="127.303" width="20" height="5" transform="rotate(45 1736.84 127.303)" fill="#00AE9A"/>
<rect x="1750.98" y="130.839" width="20" height="5" transform="rotate(135 1750.98 130.839)" fill="#00AE9A"/>
<rect x="162" y="435" width="19" height="5" fill="#EFF1CC"/>
<rect x="174" y="428" width="19" height="5" transform="rotate(90 174 428)" fill="#EFF1CC"/>
<rect x="1118.3" y="116.303" width="20" height="5" transform="rotate(-45 1118.3 116.303)" fill="#EFF1CC"/>
<rect x="1121.84" y="102.161" width="20" height="5" transform="rotate(45 1121.84 102.161)" fill="#EFF1CC"/>
<rect x="112.697" y="587.303" width="20" height="5" transform="rotate(45 112.697 587.303)" fill="#EFF1CC"/>
<rect x="126.839" y="590.839" width="20" height="5" transform="rotate(135 126.839 590.839)" fill="#EFF1CC"/>
<rect x="37" y="20" width="32" height="8" fill="white"/>
<rect x="57" y="8" width="32" height="8" transform="rotate(90 57 8)" fill="white"/>
<circle opacity="0.5" cx="979.5" cy="130.5" r="41.5" stroke="#EFF1CC" stroke-width="2"/>
<rect x="901" y="702" width="19" height="5" fill="#00AE9A"/>
<rect x="913" y="695" width="19" height="5" transform="rotate(90 913 695)" fill="#00AE9A"/>
<rect x="174" y="777" width="19" height="5" fill="#00AE9A"/>
<rect x="186" y="770" width="19" height="5" transform="rotate(90 186 770)" fill="#00AE9A"/>
<rect x="21" y="84" width="32" height="8" fill="#00AE9A"/>
<rect x="41" y="72" width="32" height="8" transform="rotate(90 41 72)" fill="#00AE9A"/>
</svg>
