<svg width="1920" height="767" viewBox="0 0 1920 767" fill="none" xmlns="http://www.w3.org/2000/svg">
<mask id="mask0_47_4024" style="mask-type:alpha" maskUnits="userSpaceOnUse" x="0" y="0" width="1920" height="767">
<rect width="1920" height="767" fill="white"/>
</mask>
<g mask="url(#mask0_47_4024)">
<path d="M1.43028e-05 0L1.03813e-05 75.1803L9.35424e-06 214C150.214 214 139.349 137.118 246.577 98.9214C329.06 69.539 362.78 84.2207 466.229 63.3097C569.678 42.3987 556.452 -7.34438e-06 556.452 -7.34438e-06L1.43028e-05 0Z" fill="#EEF0F3"/>
<circle opacity="0.2" cx="153.5" cy="461.5" r="47.5" stroke="#00AE9A" stroke-width="2"/>
<circle opacity="0.5" cx="1697.5" cy="87.5" r="27.5" stroke="#EFF1CC" stroke-width="2"/>
<g opacity="0.1">
<circle cx="1503" cy="228" r="97.5" stroke="#00AE9A" stroke-width="5"/>
<circle cx="1503" cy="228" r="80" stroke="#00AE9A" stroke-width="2"/>
</g>
<rect x="1688" y="94" width="19" height="5" fill="#00AE9A"/>
<rect x="1700" y="87" width="19" height="5" transform="rotate(90 1700 87)" fill="#00AE9A"/>
<rect x="1801.84" y="299.303" width="20" height="5" transform="rotate(45 1801.84 299.303)" fill="#00AE9A"/>
<rect x="1815.98" y="302.839" width="20" height="5" transform="rotate(135 1815.98 302.839)" fill="#00AE9A"/>
<rect x="215.839" y="219.303" width="20" height="5" transform="rotate(45 215.839 219.303)" fill="#00AE9A"/>
<rect x="229.981" y="222.839" width="20" height="5" transform="rotate(135 229.981 222.839)" fill="#00AE9A"/>
<rect x="488" y="739" width="19" height="5" fill="#EFF1CC"/>
<rect x="500" y="732" width="19" height="5" transform="rotate(90 500 732)" fill="#EFF1CC"/>
<rect x="1676" y="396" width="19" height="5" fill="#EFF1CC"/>
<rect x="1688" y="389" width="19" height="5" transform="rotate(90 1688 389)" fill="#EFF1CC"/>
<rect x="182.839" y="628.303" width="20" height="5" transform="rotate(45 182.839 628.303)" fill="#EFF1CC"/>
<rect x="196.981" y="631.839" width="20" height="5" transform="rotate(135 196.981 631.839)" fill="#EFF1CC"/>
<rect x="105" y="79" width="32" height="8" fill="white"/>
<rect x="125" y="67" width="32" height="8" transform="rotate(90 125 67)" fill="white"/>
</g>
</svg>
