<svg width="320" height="643" viewBox="0 0 320 643" fill="none" xmlns="http://www.w3.org/2000/svg">
<rect width="320" height="643" fill="white"/>
<path d="M519 643L519 567.82L519 429C406.003 429 414.175 505.882 333.514 544.079C271.466 573.461 246.101 558.779 168.282 579.69C90.4632 600.601 100.413 643 100.413 643L519 643Z" fill="#FAFBFD"/>
<rect x="271.839" y="237.304" width="20" height="5" transform="rotate(45 271.839 237.304)" fill="#EFF1CC"/>
<rect x="285.981" y="240.839" width="20" height="5" transform="rotate(135 285.981 240.839)" fill="#EFF1CC"/>
<path d="M-12.9196 295.42C1.22412 284.006 23.9603 275.465 50.8654 269.953C77.7564 264.444 108.755 261.972 139.374 262.658C169.993 263.344 200.215 267.187 225.554 274.298C250.911 281.413 271.301 291.779 282.35 305.453C326.775 360.429 320.613 437.227 263.89 483.003C249.702 494.452 236.393 500.701 223.729 502.802C211.07 504.902 199.017 502.865 187.328 497.679C163.918 487.296 141.997 464.306 119.699 436.712C108.498 422.85 91.0217 409.913 72.052 397.602C62.8933 391.658 53.3748 385.852 44.0334 380.155L43.0216 379.538C33.354 373.641 23.8981 367.859 15.2366 362.151C-2.11261 350.716 -16.177 339.636 -22.3826 328.6C-25.4734 323.104 -26.5943 317.654 -25.2319 312.184C-23.8666 306.704 -19.9882 301.125 -12.9196 295.42Z" stroke="#EAEDF5"/>
<path d="M-35.4318 287.3C-19.4724 274.421 6.17525 264.788 36.5151 258.572C66.8409 252.359 101.798 249.571 136.325 250.345C170.854 251.118 204.935 255.452 233.512 263.471C262.106 271.496 285.113 283.188 297.584 298.621C347.696 360.636 340.745 447.268 276.759 498.904C260.757 511.819 245.74 518.87 231.448 521.241C217.16 523.612 203.558 521.312 190.368 515.461C163.957 503.746 139.232 477.813 114.091 446.7C101.467 431.079 81.7701 416.497 60.3818 402.616C50.0562 395.914 39.3248 389.369 28.7921 382.945L27.6506 382.249C16.7502 375.6 6.08749 369.08 -3.67973 362.643C-23.2404 349.752 -39.1115 337.25 -46.117 324.792C-49.6079 318.585 -50.8771 312.423 -49.336 306.236C-47.7921 300.038 -43.4081 293.737 -35.4318 287.3Z" stroke="#EFF3FD"/>
<path d="M2.70879 300.782C54.5116 258.977 231.387 259.775 271.953 309.976C312.519 360.177 306.894 430.327 255.092 472.132C203.289 513.936 163.849 480.154 123.283 429.953C82.7173 379.752 -49.094 342.587 2.70879 300.782Z" fill="#F5F6F7"/>
</svg>
