<svg width="1920" height="587" viewBox="0 0 1920 587" fill="none" xmlns="http://www.w3.org/2000/svg">
<rect y="0.995117" width="1920" height="586" fill="white"/>
<circle opacity="0.2" cx="136.5" cy="371.496" r="47.5" stroke="#00AE9A" stroke-width="2"/>
<circle opacity="0.2" cx="926.5" cy="510.5" r="47.5" stroke="#00AE9A" stroke-width="2"/>
<rect x="1688" y="94.9951" width="19" height="5" fill="#00AE9A"/>
<rect x="1700" y="87.9951" width="19" height="5" transform="rotate(90 1700 87.9951)" fill="#00AE9A"/>
<rect x="1801.84" y="300.3" width="20" height="5" transform="rotate(45 1801.84 300.3)" fill="#00AE9A"/>
<rect x="1815.98" y="303.835" width="20" height="5" transform="rotate(135 1815.98 303.835)" fill="#00AE9A"/>
<rect x="803.839" y="459.304" width="20" height="5" transform="rotate(45 803.839 459.304)" fill="#00AE9A"/>
<rect x="817.981" y="462.839" width="20" height="5" transform="rotate(135 817.981 462.839)" fill="#00AE9A"/>
<rect x="1676" y="396.997" width="19" height="5" fill="#EFF1CC"/>
<rect x="1688" y="389.997" width="19" height="5" transform="rotate(90 1688 389.997)" fill="#EFF1CC"/>
<rect x="165.839" y="538.301" width="20" height="5" transform="rotate(45 165.839 538.301)" fill="#EFF1CC"/>
<rect x="179.981" y="541.836" width="20" height="5" transform="rotate(135 179.981 541.836)" fill="#EFF1CC"/>
<rect x="105" y="79.9951" width="32" height="8" fill="#00AE9A"/>
<rect x="125" y="67.9951" width="32" height="8" transform="rotate(90 125 67.9951)" fill="#00AE9A"/>
</svg>
