<svg width="14" height="14" viewBox="0 0 14 14" fill="none" xmlns="http://www.w3.org/2000/svg">
<g clip-path="url(#clip0_40_201)">
<path d="M5.09973 7.72468C5.09973 7.54931 4.95748 7.40723 4.78196 7.40723H3.67307C3.49775 7.40723 3.35547 7.54931 3.35547 7.72468V8.83344C3.35547 9.00904 3.49775 9.15118 3.67307 9.15118H4.78196C4.95748 9.15118 5.09973 9.00904 5.09973 8.83344V7.72468Z" fill="#00AE9A"/>
<path d="M7.87156 7.72468C7.87156 7.54931 7.72928 7.40723 7.5541 7.40723H6.44504C6.26972 7.40723 6.12744 7.54931 6.12744 7.72468V8.83344C6.12744 9.00904 6.26972 9.15118 6.44504 9.15118H7.5541C7.72928 9.15118 7.87156 9.00904 7.87156 8.83344V7.72468Z" fill="#00AE9A"/>
<path d="M10.6432 7.72468C10.6432 7.54931 10.5009 7.40723 10.3256 7.40723H9.2167C9.04118 7.40723 8.89893 7.54931 8.89893 7.72468V8.83344C8.89893 9.00904 9.04118 9.15118 9.2167 9.15118H10.3256C10.5009 9.15118 10.6432 9.00904 10.6432 8.83344V7.72468Z" fill="#00AE9A"/>
<path d="M5.09973 10.4963C5.09973 10.3207 4.95748 10.1787 4.78196 10.1787H3.67307C3.49775 10.1787 3.35547 10.3207 3.35547 10.4963V11.6049C3.35547 11.7804 3.49775 11.9225 3.67307 11.9225H4.78196C4.95748 11.9225 5.09973 11.7804 5.09973 11.6049V10.4963Z" fill="#00AE9A"/>
<path d="M7.87156 10.4963C7.87156 10.3207 7.72928 10.1787 7.5541 10.1787H6.44504C6.26972 10.1787 6.12744 10.3207 6.12744 10.4963V11.6049C6.12744 11.7804 6.26972 11.9225 6.44504 11.9225H7.5541C7.72928 11.9225 7.87156 11.7804 7.87156 11.6049V10.4963Z" fill="#00AE9A"/>
<path d="M10.6432 10.4963C10.6432 10.3207 10.5009 10.1787 10.3257 10.1787H9.2167C9.04118 10.1787 8.89893 10.3207 8.89893 10.4963V11.6049C8.89893 11.7804 9.04118 11.9225 9.2167 11.9225H10.3257C10.5009 11.9225 10.6432 11.7804 10.6432 11.6049V10.4963Z" fill="#00AE9A"/>
<path d="M12.6254 1.55979V3.25332C12.6254 4.01878 12.0044 4.63562 11.2391 4.63562H10.3646C9.59918 4.63562 8.96997 4.01878 8.96997 3.25332V1.55371H5.02825V3.25332C5.02825 4.01878 4.39908 4.63562 3.63379 4.63562H2.75909C1.99378 4.63562 1.37284 4.01878 1.37284 3.25332V1.55979C0.703941 1.57995 0.154297 2.13344 0.154297 2.81375V12.7386C0.154297 13.4317 0.716073 14.001 1.40917 14.001H12.5891C13.2811 14.001 13.8439 13.4306 13.8439 12.7386V2.81375C13.8439 2.13344 13.2943 1.57995 12.6254 1.55979ZM12.2192 12.1206C12.2192 12.4201 11.9764 12.6631 11.6767 12.6631H2.29761C1.99796 12.6631 1.75511 12.4201 1.75511 12.1206V6.99403C1.75511 6.69439 1.99794 6.45138 2.29761 6.45138H11.6767C11.9763 6.45138 12.2192 6.69439 12.2192 6.99403L12.2192 12.1206Z" fill="#00AE9A"/>
<path d="M2.7567 3.72775H3.62173C3.8843 3.72775 4.09718 3.51517 4.09718 3.25261V0.476283C4.09718 0.213693 3.8843 0.000976562 3.62173 0.000976562H2.7567C2.49411 0.000976562 2.28125 0.213693 2.28125 0.476283V3.25261C2.28125 3.51517 2.49411 3.72775 2.7567 3.72775Z" fill="#00AE9A"/>
<path d="M10.3534 3.72775H11.2184C11.4808 3.72775 11.6937 3.51517 11.6937 3.25261V0.476283C11.6937 0.213693 11.4808 0.000976562 11.2184 0.000976562H10.3534C10.0908 0.000976562 9.87793 0.213693 9.87793 0.476283V3.25261C9.87793 3.51517 10.0908 3.72775 10.3534 3.72775Z" fill="#00AE9A"/>
</g>
<defs>
<clipPath id="clip0_40_201">
<rect width="14" height="14" fill="white" transform="translate(-0.000488281 0.000976562)"/>
</clipPath>
</defs>
</svg>
