<svg width="80" height="10" viewBox="0 0 80 10" fill="none" xmlns="http://www.w3.org/2000/svg">
<path d="M78.8827 0.00195312C75.0838 0.00195312 73.1844 2.23659 71.5084 4.24776C69.9441 6.1472 68.6033 7.71145 65.9218 7.71145C63.2402 7.71145 61.8994 6.1472 60.3352 4.24776C58.6592 2.23659 56.7598 0.00195312 52.9609 0.00195312C49.162 0.00195312 47.2626 2.23659 45.5866 4.24776C44.0223 6.1472 42.6816 7.71145 40 7.71145C37.3184 7.71145 35.9777 6.1472 34.4134 4.24776C32.7374 2.23659 30.838 0.00195312 27.0391 0.00195312C23.2402 0.00195312 21.3408 2.23659 19.6648 4.24776C18.1006 6.1472 16.7598 7.71145 14.0782 7.71145C11.3966 7.71145 10.0559 6.1472 8.49162 4.24776C6.81564 2.23659 4.9162 0.00195312 1.11732 0.00195312C0.446927 0.00195312 0 0.448879 0 1.11927C0 1.78966 0.446927 2.23659 1.11732 2.23659C3.79888 2.23659 5.13966 3.80083 6.70391 5.70028C8.37989 7.71145 10.2793 9.94609 14.0782 9.94609C17.8771 9.94609 19.7765 7.71145 21.4525 5.70028C23.0168 3.80083 24.3575 2.23659 27.0391 2.23659C29.7207 2.23659 31.0615 3.80083 32.6257 5.70028C34.3017 7.71145 36.2011 9.94609 40 9.94609C43.7989 9.94609 45.6983 7.71145 47.3743 5.70028C48.9385 3.80083 50.2793 2.23659 52.9609 2.23659C55.6425 2.23659 56.9832 3.80083 58.5475 5.70028C60.2235 7.71145 62.1229 9.94609 65.9218 9.94609C69.7207 9.94609 71.6201 7.71145 73.2961 5.70028C74.8603 3.80083 76.2011 2.23659 78.8827 2.23659C79.5531 2.23659 80 1.78966 80 1.11927C80 0.448879 79.5531 0.00195312 78.8827 0.00195312Z" fill="#00AE9A"/>
</svg>
