<svg width="70" height="44" viewBox="0 0 70 44" fill="none" xmlns="http://www.w3.org/2000/svg">
<rect width="70" height="44" rx="4" fill="white"/>
<g clip-path="url(#clip0_1620_534)">
<path d="M29.8333 30.7399H25.3779L28.1647 13.3154H32.6198L29.8333 30.7399Z" fill="#00579F"/>
<path d="M45.9846 13.7418C45.1058 13.3893 43.7119 13 41.9885 13C37.5886 13 34.4903 15.3726 34.4713 18.7646C34.4347 21.2673 36.6896 22.6573 38.376 23.4918C40.0998 24.3445 40.6857 24.901 40.6857 25.6611C40.6682 26.8284 39.2929 27.3665 38.0101 27.3665C36.2313 27.3665 35.2782 27.0891 33.8298 26.4396L33.2431 26.1612L32.6196 30.0727C33.6646 30.5541 35.5898 30.9813 37.5886 31C42.2635 31 45.307 28.6641 45.3431 25.0494C45.3609 23.0658 44.1702 21.5459 41.6033 20.304C40.045 19.5067 39.0906 18.9691 39.0906 18.1534C39.1089 17.4118 39.8978 16.6522 41.6569 16.6522C43.1053 16.615 44.1695 16.9671 44.9757 17.3194L45.3787 17.5044L45.9846 13.7418Z" fill="#00579F"/>
<path d="M51.9059 24.567C52.2728 23.566 53.6847 19.6918 53.6847 19.6918C53.6662 19.729 54.0509 18.6723 54.2709 18.0236L54.5823 19.525C54.5823 19.525 55.426 23.6959 55.6092 24.567C54.9129 24.567 52.7859 24.567 51.9059 24.567ZM57.4055 13.3154H53.9593C52.8965 13.3154 52.0891 13.6303 51.6306 14.7611L45.0127 30.7397H49.6876C49.6876 30.7397 50.4572 28.5891 50.6227 28.1259C51.1355 28.1259 55.6832 28.1259 56.343 28.1259C56.4709 28.7376 56.8746 30.7397 56.8746 30.7397H60.9999L57.4055 13.3154Z" fill="#00579F"/>
<path d="M21.6567 13.3154L17.2934 25.1973L16.8166 22.7875C16.0099 20.0069 13.48 16.9859 10.6567 15.4838L14.6534 30.7214H19.3648L26.3679 13.3154H21.6567Z" fill="#00579F"/>
<path d="M13.2416 13.3154H6.07333L6 13.6675C11.5917 15.1135 15.295 18.5989 16.8165 22.7882L15.2582 14.7801C15.0016 13.6673 14.2132 13.3521 13.2416 13.3154Z" fill="#FAA61A"/>
</g>
<defs>
<clipPath id="clip0_1620_534">
<rect width="55" height="18" fill="white" transform="translate(6 13)"/>
</clipPath>
</defs>
</svg>
