<svg width="320" height="742" viewBox="0 0 320 742" fill="none" xmlns="http://www.w3.org/2000/svg">
<rect width="320" height="742" fill="#FAFBFD"/>
<path d="M1.6049e-05 0L1.03261e-05 54.1017L6.73156e-06 154C168.552 154 156.361 98.6739 276.68 71.1864C369.233 50.0421 407.069 60.6074 523.147 45.5593C639.226 30.5112 624.385 -1.50743e-05 624.385 -1.50743e-05L1.6049e-05 0Z" fill="#EEF0F3"/>
<circle opacity="0.2" cx="136.5" cy="370.5" r="47.5" stroke="#00AE9A" stroke-width="2"/>
<circle opacity="0.2" cx="35.5" cy="153.5" r="47.5" stroke="#00AE9A" stroke-width="2"/>
<g opacity="0.1">
<circle cx="253" cy="563" r="97.5" stroke="#00AE9A" stroke-width="5"/>
<circle cx="253" cy="563" r="80" stroke="#00AE9A" stroke-width="2"/>
</g>
<rect x="275" y="108" width="19" height="5" fill="#00AE9A"/>
<rect x="287" y="101" width="19" height="5" transform="rotate(90 287 101)" fill="#00AE9A"/>
<rect x="215.839" y="219.303" width="20" height="5" transform="rotate(45 215.839 219.303)" fill="#00AE9A"/>
<rect x="229.981" y="222.839" width="20" height="5" transform="rotate(135 229.981 222.839)" fill="#00AE9A"/>
<rect x="278.839" y="596.303" width="20" height="5" transform="rotate(45 278.839 596.303)" fill="#EFF1CC"/>
<rect x="292.981" y="599.839" width="20" height="5" transform="rotate(135 292.981 599.839)" fill="#EFF1CC"/>
<rect x="253" y="94" width="32" height="8" fill="white"/>
<rect x="273" y="82" width="32" height="8" transform="rotate(90 273 82)" fill="white"/>
</svg>
