<svg width="31" height="45" viewBox="0 0 31 45" fill="none" xmlns="http://www.w3.org/2000/svg">
<g clip-path="url(#clip0_40_1483)">
<path d="M25.7108 44.0018C25.255 44.0018 24.7992 44.0018 24.3331 44.0018C23.8773 44.0018 23.4111 44.0018 22.9553 44.0018H11.5499C8.59758 44.0018 5.65559 44.0018 2.70324 44.0018C0.880037 43.9912 -0.000488281 43.0729 -0.000488281 41.1938C-0.000488281 28.3814 -0.000488281 15.5689 -0.000488281 2.7565C-0.000488281 0.941409 0.8386 0.0445391 2.57893 0.00183105H21.4843C22.2095 0.0552162 22.7999 0.343496 23.349 0.909378C25.4104 3.06614 27.099 4.80649 28.6632 6.38669C29.3987 7.1234 29.9166 7.72132 29.9995 8.58616V41.5354C29.9684 42.9875 29.0154 43.9698 27.6273 43.9805C27.0472 43.9912 26.4463 44.0018 25.7108 44.0018ZM2.63073 1.01615C1.44979 1.01615 0.993987 1.49661 0.993987 2.72447C0.993987 15.5689 0.993987 28.4134 0.993987 41.2578C0.993987 42.4964 1.47051 42.9768 2.68252 42.9768C10.8973 42.9768 19.1121 42.9768 27.3269 42.9768C28.5492 42.9768 29.005 42.507 29.005 41.2578C29.005 32.7696 29.005 8.49006 29.005 8.49006H28.5907C28.1142 8.49006 27.648 8.49006 27.1818 8.49006C26.726 8.49006 26.2806 8.49006 25.8455 8.49006C25.2758 8.49006 24.7164 8.49006 24.157 8.49006C22.7274 8.47939 21.764 7.48642 21.7537 6.02367C21.7433 5.10545 21.7537 4.16587 21.7537 3.25832C21.7537 2.8526 21.7537 2.43619 21.7537 2.03046V1.05886L9.99951 1.00183L10.0271 8.86376L7.28197 7.18747L3.99951 9.00183V1.00183L3.17976 1.01615C2.98294 1.01615 2.80683 1.01615 2.63073 1.01615ZM22.7481 2.88463C22.7481 3.22629 22.7481 3.56796 22.7481 3.88827C22.7481 4.67837 22.7378 5.41508 22.7585 6.16247C22.7792 6.93122 23.3179 7.44371 24.1363 7.46507C24.3849 7.47575 24.6438 7.47575 24.9753 7.47575C25.1618 7.47575 25.3379 7.47575 25.5244 7.47575C25.7108 7.47575 25.8869 7.47575 26.0734 7.47575H28.1867L22.7585 1.84896V2.88463H22.7481ZM4.99951 7.00183L7.30269 5.99164L9.0223 7.04867L8.99951 1.00183H4.99951V7.00183Z" fill="#252D34"/>
<path d="M4.99951 32.0018V23.0018H24.9995V32.0018H4.99951ZM5.92305 30.8868H24.0363V24.1055H5.92305V30.8868Z" fill="#252D34"/>
<path d="M24.9995 12.0018H4.99951V13.0018H24.9995V12.0018Z" fill="#252D34"/>
<path d="M24.9995 16.0018H4.99951V17.0018H24.9995V16.0018Z" fill="#252D34"/>
<path d="M24.9995 20.0018H4.99951V21.0018H24.9995V20.0018Z" fill="#252D34"/>
<path d="M24.9995 38.002H4.99951V39.002H24.9995V38.002Z" fill="#252D34"/>
<path d="M13.9995 34.002H4.99951V35.002H13.9995V34.002Z" fill="#252D34"/>
</g>
<defs>
<clipPath id="clip0_40_1483">
<rect width="31" height="44" fill="white" transform="translate(-0.000488281 0.00183105)"/>
</clipPath>
</defs>
</svg>
