<svg width="44" height="45" viewBox="0 0 44 45" fill="none" xmlns="http://www.w3.org/2000/svg">
<g clip-path="url(#clip0_40_1588)">
<path d="M43.0832 21.0851C43.5965 21.0851 43.9999 21.4884 43.9999 22.0017C43.9999 22.5151 43.5965 22.9184 43.0832 22.9184H42.1665V21.0851H43.0832Z" fill="white"/>
<path d="M22.9165 21.0851H42.1665V22.9184H22.9165V21.0851Z" fill="white"/>
<path d="M39.4167 44.0018H22C22.5133 44.0018 22.9167 43.5985 22.9167 43.0852V42.1685H39.4167C40.9383 42.1685 42.1667 40.9402 42.1667 39.4185V22.9185H43.0833C43.5967 22.9185 44 22.5152 44 22.0018V39.4185C44 41.9485 41.9467 44.0018 39.4167 44.0018Z" fill="white"/>
<path d="M44 4.58516V22.0018C44 21.4885 43.5967 21.0852 43.0833 21.0852H42.1667V4.58516C42.1667 3.0635 40.9383 1.83516 39.4167 1.83516H22.9167V0.918498C22.9167 0.405164 22.5133 0.00183105 22 0.00183105H39.4167C41.9467 0.00183105 44 2.05516 44 4.58516Z" fill="white"/>
<path d="M36.6665 11.0018C37.1798 11.0018 37.5832 11.4052 37.5832 11.9185C37.5832 12.4318 37.1798 12.8352 36.6665 12.8352H29.3332C28.8198 12.8352 28.4165 12.4318 28.4165 11.9185C28.4165 11.4052 28.8198 11.0018 29.3332 11.0018H36.6665Z" fill="white"/>
<path d="M36.6665 29.3351C37.1798 29.3351 37.5832 29.7384 37.5832 30.2517C37.5832 30.7651 37.1798 31.1684 36.6665 31.1684H29.3332C28.8198 31.1684 28.4165 30.7651 28.4165 30.2517C28.4165 29.7384 28.8198 29.3351 29.3332 29.3351H36.6665Z" fill="white"/>
<path d="M36.6665 34.8352C37.1798 34.8352 37.5832 35.2385 37.5832 35.7519C37.5832 36.2652 37.1798 36.6685 36.6665 36.6685H29.3332C28.8198 36.6685 28.4165 36.2652 28.4165 35.7519C28.4165 35.2385 28.8198 34.8352 29.3332 34.8352H36.6665Z" fill="white"/>
<path d="M22.9168 42.1685V43.0851C22.9168 43.5985 22.5135 44.0018 22.0002 44.0018C21.4868 44.0018 21.0835 43.5985 21.0835 43.0851V42.1685H22.9168Z" fill="white"/>
<path d="M21.0835 22.9186H22.9168V42.1686H21.0835V22.9186Z" fill="white"/>
<path d="M21.0835 21.0851H22.9168V22.9184H21.0835V21.0851Z" fill="white"/>
<path d="M21.0835 1.83508H22.9168V21.0851H21.0835V1.83508Z" fill="white"/>
<path d="M22.9168 0.918498V1.83516H21.0835V0.918498C21.0835 0.405164 21.4868 0.00183105 22.0002 0.00183105C22.5135 0.00183105 22.9168 0.405164 22.9168 0.918498Z" fill="white"/>
<path d="M1.8335 21.0851H21.0835V22.9184H1.8335V21.0851Z" fill="white"/>
<path d="M14.6665 11.0018C15.1798 11.0018 15.5832 11.4052 15.5832 11.9185C15.5832 12.4318 15.1798 12.8352 14.6665 12.8352H11.9165V11.0018H14.6665Z" fill="white"/>
<path d="M14.3917 35.1102C14.7583 35.4585 14.7583 36.0452 14.3917 36.3935C14.2267 36.5768 13.9883 36.6685 13.75 36.6685C13.5117 36.6685 13.2733 36.5768 13.1083 36.3935L11 34.2852L12.2833 33.0018L14.3917 35.1102Z" fill="white"/>
<path d="M13.1083 29.6101C13.4567 29.2434 14.0433 29.2434 14.3917 29.6101C14.7583 29.9584 14.7583 30.5451 14.3917 30.8934L12.2833 33.0017L11 31.7184L13.1083 29.6101Z" fill="white"/>
<path d="M9.71143 33L10.9948 31.7166L12.2782 33L10.9948 34.2834L9.71143 33Z" fill="white"/>
<path d="M11.9168 12.8351V15.5851C11.9168 16.0984 11.5135 16.5017 11.0002 16.5017C10.4868 16.5017 10.0835 16.0984 10.0835 15.5851V12.8351H11.9168Z" fill="white"/>
<path d="M10.0835 11.0018H11.9168V12.8352H10.0835V11.0018Z" fill="white"/>
<path d="M11.9168 8.25175V11.0017H10.0835V8.25175C10.0835 7.73842 10.4868 7.33508 11.0002 7.33508C11.5135 7.33508 11.9168 7.73842 11.9168 8.25175Z" fill="white"/>
<path d="M11.0002 31.7184L9.71683 33.0017L7.6085 30.8934C7.24183 30.5451 7.24183 29.9584 7.6085 29.6101C7.95683 29.2434 8.5435 29.2434 8.89183 29.6101L11.0002 31.7184Z" fill="white"/>
<path d="M10.0832 11.0018V12.8352H7.33317C6.81984 12.8352 6.4165 12.4318 6.4165 11.9185C6.4165 11.4052 6.81984 11.0018 7.33317 11.0018H10.0832Z" fill="white"/>
<path d="M8.89183 36.3935C8.72683 36.5768 8.4885 36.6685 8.25016 36.6685C8.01183 36.6685 7.7735 36.5768 7.6085 36.3935C7.24183 36.0452 7.24183 35.4585 7.6085 35.1102L9.71683 33.0018L11.0002 34.2852L8.89183 36.3935Z" fill="white"/>
<path d="M1.83333 21.0851V22.9184H0.916667C0.403333 22.9184 0 22.5151 0 22.0017C0 21.4884 0.403333 21.0851 0.916667 21.0851H1.83333Z" fill="white"/>
<path d="M0 4.58516C0 2.05516 2.05333 0.00183105 4.58333 0.00183105H22C21.4867 0.00183105 21.0833 0.405164 21.0833 0.918498V1.83516H4.58333C3.06167 1.83516 1.83333 3.0635 1.83333 4.58516V21.0852H0.916667C0.403333 21.0852 0 21.4885 0 22.0018V4.58516Z" fill="white"/>
<path d="M1.83333 39.4185C1.83333 40.9402 3.06167 42.1685 4.58333 42.1685H21.0833V43.0852C21.0833 43.5985 21.4867 44.0018 22 44.0018H4.58333C2.05333 44.0018 0 41.9485 0 39.4185V22.0018C0 22.5152 0.403333 22.9185 0.916667 22.9185H1.83333V39.4185Z" fill="white"/>
</g>
<defs>
<clipPath id="clip0_40_1588">
<rect width="44" height="44" fill="white" transform="translate(0 0.00183105)"/>
</clipPath>
</defs>
</svg>
