<svg width="10" height="10" viewBox="0 0 10 10" fill="none" xmlns="http://www.w3.org/2000/svg">
<g opacity="0.6" clip-path="url(#clip0_47_11422)">
<path d="M9.84014 5.38853L6.2288 8.99996C6.12571 9.10305 5.98831 9.15964 5.84181 9.15964C5.69514 9.15964 5.55783 9.10297 5.45474 8.99996L5.12686 8.672C5.02385 8.56907 4.9671 8.4316 4.9671 8.28501C4.9671 8.13851 5.02385 7.9964 5.12686 7.89347L7.23366 5.78203H0.540238C0.238453 5.78203 0 5.54577 0 5.2439V4.78025C0 4.47838 0.238453 4.2183 0.540238 4.2183H7.25757L5.12694 2.09507C5.02393 1.99198 4.96718 1.85824 4.96718 1.71166C4.96718 1.56523 5.02393 1.42954 5.12694 1.32654L5.45482 0.999629C5.55791 0.896541 5.69522 0.840363 5.84189 0.840363C5.98839 0.840363 6.12579 0.897272 6.22888 1.00036L9.84022 4.61171C9.94355 4.71512 10.0004 4.85317 9.99998 4.99992C10.0003 5.14715 9.94355 5.28528 9.84014 5.38853Z" fill="#252D34"/>
</g>
<defs>
<clipPath id="clip0_47_11422">
<rect width="10" height="10" fill="white" transform="matrix(1 0 0 -1 0 10)"/>
</clipPath>
</defs>
</svg>
