<svg width="10" height="19" viewBox="0 0 10 19" fill="none" xmlns="http://www.w3.org/2000/svg">
<ellipse cx="5" cy="3" rx="3" ry="3" transform="rotate(90 5 3)" fill="#D3D3D5"/>
<g clip-path="url(#clip0_47_11454)">
<path d="M5.92859 17.2018L9.73125 11.6472C9.90699 11.3907 10 11.1322 10 10.9174C10 10.502 9.66666 10.2451 9.10869 10.2451L0.890017 10.2451C0.332694 10.2451 -1.12165e-08 10.5017 -2.93292e-08 10.9161C-3.8734e-08 11.1312 0.09309 11.3856 0.269312 11.6427L4.0719 17.1999C4.31684 17.5573 4.64646 17.7552 5.00045 17.7552C5.35419 17.7553 5.68372 17.5596 5.92859 17.2018Z" fill="#D3D3D5"/>
</g>
<defs>
<clipPath id="clip0_47_11454">
<rect width="10" height="10" fill="white" transform="translate(10 9) rotate(90)"/>
</clipPath>
</defs>
</svg>
