<svg width="70" height="44" viewBox="0 0 70 44" fill="none" xmlns="http://www.w3.org/2000/svg">
<rect width="70" height="44" rx="4" fill="white"/>
<path d="M54.1704 36.5746V36.6553H54.2451C54.2616 36.6553 54.2757 36.6514 54.2859 36.6451C54.2954 36.6389 54.3009 36.6279 54.3009 36.6146C54.3009 36.6013 54.2954 36.5911 54.2859 36.5848C54.2757 36.5778 54.2616 36.5746 54.2451 36.5746H54.1704ZM54.2459 36.5183C54.2844 36.5183 54.3142 36.5269 54.3355 36.5441C54.3567 36.5613 54.3669 36.5848 54.3669 36.6146C54.3669 36.6396 54.359 36.66 54.3417 36.6764C54.3252 36.6921 54.3017 36.7023 54.2702 36.7062L54.3692 36.8197H54.2922L54.2003 36.707H54.1704V36.8197H54.106V36.5183H54.2459ZM54.2262 36.9239C54.2616 36.9239 54.2946 36.9168 54.3244 36.9035C54.3551 36.8902 54.3818 36.8722 54.4046 36.8495C54.4274 36.8268 54.4455 36.8002 54.4588 36.7688C54.4714 36.7383 54.4785 36.7054 54.4785 36.6702C54.4785 36.6349 54.4714 36.6021 54.4588 36.5715C54.4455 36.541 54.4274 36.5136 54.4046 36.4909C54.3818 36.4682 54.3551 36.4502 54.3244 36.4368C54.2946 36.4243 54.2616 36.418 54.2262 36.418C54.1908 36.418 54.157 36.4243 54.1264 36.4368C54.095 36.4502 54.0675 36.4682 54.0447 36.4909C54.0219 36.5136 54.0038 36.541 53.9912 36.5715C53.9779 36.6021 53.9716 36.6349 53.9716 36.6702C53.9716 36.7054 53.9779 36.7383 53.9912 36.7688C54.0038 36.8002 54.0219 36.8268 54.0447 36.8495C54.0675 36.8722 54.095 36.8902 54.1264 36.9035C54.157 36.9168 54.1908 36.9239 54.2262 36.9239ZM54.2262 36.3452C54.2726 36.3452 54.315 36.3538 54.3559 36.3711C54.396 36.3875 54.4305 36.411 54.4612 36.4408C54.4911 36.4697 54.5146 36.5042 54.5319 36.5441C54.5492 36.5833 54.5579 36.6255 54.5579 36.6702C54.5579 36.7148 54.5492 36.7571 54.5319 36.7962C54.5146 36.8354 54.4911 36.8698 54.4612 36.8996C54.4305 36.9286 54.396 36.9521 54.3559 36.9693C54.315 36.9865 54.2726 36.9951 54.2262 36.9951C54.1791 36.9951 54.1358 36.9865 54.095 36.9693C54.0541 36.9521 54.0187 36.9286 53.9889 36.8996C53.959 36.8698 53.9354 36.8354 53.9181 36.7962C53.9008 36.7571 53.8922 36.7148 53.8922 36.6702C53.8922 36.6255 53.9008 36.5833 53.9181 36.5441C53.9354 36.5042 53.959 36.4697 53.9889 36.4408C54.0187 36.411 54.0541 36.3875 54.095 36.3711C54.1358 36.3538 54.1791 36.3452 54.2262 36.3452ZM23.6058 35.1841C23.6058 34.6093 23.9838 34.1372 24.6016 34.1372C25.1918 34.1372 25.5902 34.589 25.5902 35.1841C25.5902 35.7791 25.1918 36.2309 24.6016 36.2309C23.9838 36.2309 23.6058 35.7588 23.6058 35.1841ZM26.263 35.1841V33.5492H25.5494V33.9461C25.323 33.6517 24.9796 33.4669 24.5127 33.4669C23.5924 33.4669 22.8709 34.1857 22.8709 35.1841C22.8709 36.1832 23.5924 36.9012 24.5127 36.9012C24.9796 36.9012 25.323 36.7164 25.5494 36.422V36.8189H26.263V35.1841ZM50.3783 35.1841C50.3783 34.6093 50.7564 34.1372 51.3741 34.1372C51.9651 34.1372 52.3628 34.589 52.3628 35.1841C52.3628 35.7791 51.9651 36.2309 51.3741 36.2309C50.7564 36.2309 50.3783 35.7588 50.3783 35.1841ZM53.0363 35.1841V32.2361H52.3219V33.9461C52.0956 33.6517 51.7521 33.4669 51.2853 33.4669C50.365 33.4669 49.6435 34.1857 49.6435 35.1841C49.6435 36.1832 50.365 36.9012 51.2853 36.9012C51.7521 36.9012 52.0956 36.7164 52.3219 36.422V36.8189H53.0363V35.1841ZM35.1212 34.1035C35.5809 34.1035 35.8764 34.3909 35.9519 34.8967H34.2488C34.325 34.4245 34.6127 34.1035 35.1212 34.1035ZM35.1353 33.4669C34.1733 33.4669 33.5006 34.1646 33.5006 35.1841C33.5006 36.2239 34.2008 36.9012 35.1832 36.9012C35.6776 36.9012 36.1303 36.7782 36.5287 36.4431L36.179 35.9162C35.9039 36.1346 35.5534 36.2583 35.2241 36.2583C34.7643 36.2583 34.3454 36.0461 34.2425 35.4573H36.6796C36.6867 35.3688 36.6938 35.2796 36.6938 35.1841C36.6867 34.1646 36.0548 33.4669 35.1353 33.4669ZM43.7522 35.1841C43.7522 34.6093 44.1302 34.1372 44.748 34.1372C45.3382 34.1372 45.7366 34.589 45.7366 35.1841C45.7366 35.7791 45.3382 36.2309 44.748 36.2309C44.1302 36.2309 43.7522 35.7588 43.7522 35.1841ZM46.4094 35.1841V33.5492H45.6958V33.9461C45.4686 33.6517 45.126 33.4669 44.6591 33.4669C43.7388 33.4669 43.0173 34.1857 43.0173 35.1841C43.0173 36.1832 43.7388 36.9012 44.6591 36.9012C45.126 36.9012 45.4686 36.7164 45.6958 36.422V36.8189H46.4094V35.1841ZM39.722 35.1841C39.722 36.1761 40.4151 36.9012 41.473 36.9012C41.9674 36.9012 42.2967 36.7915 42.6535 36.5112L42.3108 35.9365C42.0428 36.1283 41.7614 36.2309 41.4518 36.2309C40.882 36.2239 40.4631 35.8136 40.4631 35.1841C40.4631 34.5545 40.882 34.1442 41.4518 34.1372C41.7614 34.1372 42.0428 34.2398 42.3108 34.4316L42.6535 33.8569C42.2967 33.5766 41.9674 33.4669 41.473 33.4669C40.4151 33.4669 39.722 34.192 39.722 35.1841ZM48.9228 33.4669C48.511 33.4669 48.243 33.6588 48.0575 33.9461V33.5492H47.3502V36.8189H48.0646V34.986C48.0646 34.4449 48.298 34.1442 48.7648 34.1442C48.9094 34.1442 49.0603 34.1646 49.2112 34.2264L49.4313 33.5562C49.2733 33.4943 49.0674 33.4669 48.9228 33.4669ZM29.7926 33.8091C29.4491 33.5836 28.976 33.4669 28.4542 33.4669C27.6226 33.4669 27.0874 33.8639 27.0874 34.5138C27.0874 35.047 27.4859 35.3759 28.22 35.4785L28.5571 35.5262C28.9485 35.581 29.1332 35.6836 29.1332 35.8684C29.1332 36.1213 28.8723 36.2654 28.385 36.2654C27.8907 36.2654 27.5338 36.108 27.2933 35.9232L26.957 36.4768C27.3484 36.7641 27.8427 36.9012 28.3779 36.9012C29.3257 36.9012 29.8751 36.4564 29.8751 35.8339C29.8751 35.2592 29.4429 34.9585 28.7284 34.856L28.3921 34.8074C28.0832 34.7667 27.8356 34.7056 27.8356 34.4864C27.8356 34.2468 28.0691 34.1035 28.4604 34.1035C28.8793 34.1035 29.2849 34.2609 29.4837 34.3838L29.7926 33.8091ZM39.0005 33.4669C38.5887 33.4669 38.3207 33.6588 38.136 33.9461V33.5492H37.4286V36.8189H38.1423V34.986C38.1423 34.4449 38.3757 34.1442 38.8425 34.1442C38.9871 34.1442 39.138 34.1646 39.2889 34.2264L39.509 33.5562C39.351 33.4943 39.1451 33.4669 39.0005 33.4669ZM32.9104 33.5492H31.7433V32.5571H31.0218V33.5492H30.3561V34.199H31.0218V35.6906C31.0218 36.4494 31.3173 36.9012 32.1614 36.9012C32.471 36.9012 32.8278 36.8056 33.0542 36.6483L32.8483 36.0391C32.6353 36.162 32.4019 36.2239 32.2164 36.2239C31.8596 36.2239 31.7433 36.0046 31.7433 35.6766V34.199H32.9104V33.5492ZM22.2399 36.8189V34.7667C22.2399 33.9939 21.7455 33.474 20.9486 33.4669C20.5297 33.4599 20.0974 33.5899 19.7948 34.0487C19.5685 33.6862 19.2117 33.4669 18.7103 33.4669C18.3597 33.4669 18.0171 33.5695 17.7491 33.9524V33.5492H17.0347V36.8189H17.7554V35.0063C17.7554 34.4386 18.0713 34.1372 18.5594 34.1372C19.0333 34.1372 19.273 34.4449 19.273 34.9993V36.8189H19.9945V35.0063C19.9945 34.4386 20.3238 34.1372 20.7977 34.1372C21.2849 34.1372 21.5184 34.4449 21.5184 34.9993V36.8189H22.2399Z" fill="#231F20"/>
<path d="M54.6107 25.9453V25.4677H54.4857L54.3411 25.7958L54.1973 25.4677H54.0715V25.9453H54.1604V25.5851L54.2955 25.896H54.3875L54.5227 25.5843V25.9453H54.6107ZM53.8177 25.9453V25.5491H53.978V25.4685H53.5693V25.5491H53.7297V25.9453H53.8177Z" fill="#F79410"/>
<path d="M40.4015 27.9998H29.5859V8.63477H40.4015V27.9998Z" fill="#FF5F00"/>
<path d="M30.2784 18.3151C30.2784 14.3868 32.1245 10.8876 34.9994 8.63261C32.8971 6.98362 30.2438 5.9994 27.3602 5.9994C20.5337 5.9994 15 11.5133 15 18.3151C15 25.117 20.5337 30.6309 27.3602 30.6309C30.2438 30.6309 32.8971 29.6466 34.9994 27.9976C32.1245 25.7426 30.2784 22.2434 30.2784 18.3151Z" fill="#EB001B"/>
<path d="M54.988 18.3151C54.988 25.117 49.4543 30.6309 42.6278 30.6309C39.7442 30.6309 37.0909 29.6466 34.9878 27.9976C37.8635 25.7426 39.7096 22.2434 39.7096 18.3151C39.7096 14.3868 37.8635 10.8876 34.9878 8.63261C37.0909 6.98362 39.7442 5.9994 42.6278 5.9994C49.4543 5.9994 54.988 11.5133 54.988 18.3151Z" fill="#F79E1B"/>
</svg>
